<svg width="16" height="16" viewBox="0 0 16 16" fill="none" xmlns="http://www.w3.org/2000/svg">
<path d="M12.8832 6.31213C12.8832 6.31213 12.5212 10.8021 12.3112 12.6935C12.2112 13.5968 11.6532 14.1261 10.7392 14.1428C8.99991 14.1741 7.25858 14.1761 5.51991 14.1395C4.64058 14.1215 4.09191 13.5855 3.99391 12.6981C3.78258 10.7901 3.42258 6.31213 3.42258 6.31213" stroke="black" stroke-linecap="round" stroke-linejoin="round"/>
<path d="M13.8055 4.15979H2.50012" stroke="black" stroke-linecap="round" stroke-linejoin="round"/>
<path d="M11.627 4.1598C11.1037 4.1598 10.653 3.7898 10.5504 3.27713L10.3884 2.46647C10.2884 2.09247 9.94971 1.8338 9.56371 1.8338H6.74171C6.35571 1.8338 6.01704 2.09247 5.91704 2.46647L5.75504 3.27713C5.65238 3.7898 5.20171 4.1598 4.67838 4.1598" stroke="black" stroke-linecap="round" stroke-linejoin="round"/>
</svg>
